<?xml version="1.0" standalone="no"?>
<!DOCTYPE svg PUBLIC "-//W3C//DTD SVG 20010904//EN"
 "http://www.w3.org/TR/2001/REC-SVG-20010904/DTD/svg10.dtd">
<svg version="1.0" xmlns="http://www.w3.org/2000/svg"
 width="260.000000pt" height="260.000000pt" viewBox="0 0 260.000000 260.000000"
 preserveAspectRatio="xMidYMid meet">
<metadata>
Created by potrace 1.11, written by Peter Selinger 2001-2013
</metadata>
<g transform="translate(0.000000,260.000000) scale(0.100000,-0.100000)"
fill="#000000" stroke="none">
<path d="M1195 2330 c-91 -23 -150 -44 -255 -87 -83 -35 -317 -153 -382 -193
-56 -34 -52 -23 17 52 37 40 73 85 81 100 13 24 12 28 -3 36 -31 16 -95 -14
-198 -91 -67 -50 -207 -183 -253 -239 -122 -153 -182 -299 -177 -429 4 -78 19
-109 55 -109 26 0 35 5 283 161 270 171 498 293 639 344 194 70 197 -1 12
-380 -69 -142 -168 -332 -218 -420 -13 -22 -38 -67 -56 -100 -60 -109 -182
-318 -252 -432 -56 -92 -67 -117 -62 -140 15 -57 169 -173 231 -173 12 0 33
10 47 23 13 12 141 177 283 367 141 190 298 392 348 450 93 109 680 700 695
700 5 0 -11 -35 -34 -77 -23 -43 -58 -107 -78 -143 -19 -36 -122 -225 -228
-420 -107 -195 -212 -395 -233 -444 -124 -279 -114 -516 24 -586 138 -71 354
43 655 344 140 141 305 331 333 384 11 21 8 148 -4 161 -2 2 -17 -12 -32 -30
-42 -50 -230 -236 -303 -300 -168 -146 -246 -188 -300 -159 -20 11 -40 60 -40
100 0 62 75 230 198 444 70 124 118 197 383 591 195 290 216 358 146 478 -44
75 -161 167 -213 167 -39 0 -200 -98 -382 -232 -102 -75 -337 -323 -607 -638
-50 -58 -95 -111 -102 -117 -6 -7 -51 -60 -99 -118 -48 -58 -89 -104 -91 -102
-2 2 40 80 93 173 284 500 360 654 399 809 7 29 9 43 19 115 4 39 -13 101 -36
123 -54 54 -177 69 -303 37z"/>
</g>
</svg>
